<?xml version="1.0" standalone="no"?>
<!DOCTYPE svg PUBLIC "-//W3C//DTD SVG 20010904//EN"
 "http://www.w3.org/TR/2001/REC-SVG-20010904/DTD/svg10.dtd">
<svg version="1.0" xmlns="http://www.w3.org/2000/svg"
 width="576.000000pt" height="576.000000pt" viewBox="0 0 576.000000 576.000000"
 preserveAspectRatio="xMidYMid meet">
<metadata>
Created by potrace 1.11, written by Peter Selinger 2001-2013
</metadata>
<g transform="translate(0.000000,576.000000) scale(0.100000,-0.100000)"
fill="#000000" stroke="none">
<path d="M3514 5400 c-14 -14 -165 -100 -176 -100 -4 0 -8 -4 -8 -10 0 -5 -4
-10 -9 -10 -9 0 -106 -53 -161 -88 -14 -9 -27 -17 -30 -17 -3 0 -16 -8 -30
-16 -61 -39 -292 -169 -300 -169 -4 0 -10 -4 -12 -8 -3 -8 -42 -31 -148 -88
-19 -11 -37 -21 -40 -24 -10 -10 -65 -41 -82 -47 -10 -3 -18 -9 -18 -14 0 -5
-9 -9 -20 -9 -11 0 -20 -4 -20 -10 0 -5 -7 -10 -16 -10 -9 0 -22 -6 -28 -14
-6 -7 -42 -30 -81 -51 -38 -21 -87 -49 -107 -62 -21 -12 -39 -23 -42 -23 -2 0
-34 -18 -70 -40 -36 -22 -69 -40 -73 -40 -3 0 -14 -6 -22 -14 -9 -7 -47 -30
-86 -51 -38 -20 -77 -44 -86 -51 -8 -8 -18 -14 -22 -14 -3 0 -57 -30 -119 -66
-62 -37 -142 -82 -178 -102 -36 -19 -72 -40 -80 -46 -8 -7 -35 -22 -60 -35
-25 -13 -51 -30 -59 -37 -13 -12 -15 -192 -15 -1286 l-1 -1273 37 -28 c21 -15
40 -27 42 -27 3 0 29 -14 58 -31 29 -18 78 -45 108 -62 30 -17 66 -38 80 -47
14 -9 32 -20 40 -23 8 -4 29 -15 45 -26 17 -10 47 -28 68 -40 20 -11 53 -30
72 -41 56 -32 107 -60 150 -83 22 -12 42 -25 45 -28 3 -3 32 -21 65 -39 33
-18 104 -59 158 -91 53 -32 97 -55 97 -51 0 4 4 2 8 -3 10 -16 311 -191 345
-202 9 -3 17 -9 17 -13 0 -4 8 -10 18 -13 9 -4 35 -17 57 -31 22 -14 63 -37
90 -52 28 -14 62 -35 77 -45 14 -11 29 -19 32 -19 3 0 34 -17 68 -38 70 -43
142 -84 203 -116 22 -12 42 -24 43 -28 2 -5 7 -8 11 -8 4 0 46 -23 92 -50 58
-35 91 -49 106 -45 12 3 72 34 133 70 61 36 113 65 115 65 5 0 75 46 92 60 7
6 15 10 18 10 13 1 43 16 89 47 28 18 56 33 63 33 7 0 13 3 13 8 0 4 10 12 23
18 97 49 127 67 127 75 0 6 5 7 10 4 6 -3 10 -2 10 2 0 5 12 14 28 20 15 7 47
24 72 39 25 15 70 41 100 57 30 17 75 43 99 59 25 15 51 28 58 28 7 0 13 4 13
8 0 5 15 16 33 25 17 9 59 32 92 52 33 20 68 38 78 42 9 3 17 9 17 14 0 5 4 9
9 9 9 0 173 90 181 100 3 3 21 14 40 24 65 33 101 54 140 80 22 14 41 26 44
26 4 0 166 92 196 111 8 5 23 12 33 15 9 4 17 10 17 15 0 5 7 9 15 9 8 0 15 5
15 10 0 6 9 10 19 10 11 0 21 3 23 8 3 8 28 23 130 80 l68 37 -3 1285 -2 1284
-40 21 c-22 11 -42 22 -45 25 -6 6 -33 21 -110 63 -30 17 -66 38 -80 47 -14 9
-45 28 -70 42 -25 14 -74 42 -110 63 -36 21 -81 46 -100 57 -19 11 -64 37
-100 58 -36 21 -83 48 -106 61 -23 13 -107 62 -188 109 -81 47 -176 101 -210
120 -35 19 -70 40 -77 46 -8 5 -35 21 -61 35 -27 13 -48 27 -48 31 0 5 -4 8
-10 8 -8 0 -102 50 -150 80 -14 9 -91 53 -156 90 -139 79 -200 116 -206 125
-4 5 -8 6 -8 1 0 -5 -8 -3 -17 5 -10 8 -29 20 -43 28 -14 8 -58 34 -97 57 -40
24 -73 40 -73 37 0 -3 -8 1 -17 9 -21 18 -90 58 -101 58 -5 0 -13 -5 -18 -10z
m90 -270 c4 0 36 -18 72 -40 36 -22 68 -40 71 -40 3 0 17 -8 31 -18 15 -11 52
-33 82 -49 49 -27 191 -109 230 -133 37 -22 236 -135 245 -139 6 -2 21 -12 35
-22 14 -9 53 -32 85 -50 33 -18 62 -35 65 -38 3 -3 19 -13 35 -21 17 -8 80
-44 140 -79 61 -35 135 -77 165 -94 30 -17 66 -38 79 -49 13 -10 28 -18 33
-18 11 0 92 -52 96 -62 2 -5 11 -8 21 -8 9 0 21 -4 27 -9 5 -5 25 -18 44 -29
121 -68 306 -176 310 -181 3 -3 22 -14 43 -23 l37 -18 0 -1159 0 -1160 -29
-20 c-16 -12 -31 -21 -34 -21 -3 0 -62 -34 -132 -75 -69 -41 -128 -75 -131
-75 -2 0 -21 -11 -42 -24 -61 -39 -137 -80 -141 -77 -2 1 -7 -2 -10 -7 -3 -5
-42 -30 -86 -54 -106 -59 -129 -72 -135 -78 -7 -7 -79 -48 -115 -66 -16 -8
-43 -23 -60 -34 -16 -11 -42 -25 -57 -31 -16 -6 -28 -14 -28 -18 0 -4 -16 -13
-35 -21 -19 -8 -35 -17 -35 -22 0 -4 -5 -8 -10 -8 -6 0 -38 -17 -73 -37 -34
-21 -76 -45 -92 -53 -17 -8 -32 -18 -35 -21 -5 -6 -76 -47 -145 -83 -22 -12
-59 -34 -82 -49 -24 -15 -45 -27 -48 -27 -3 0 -24 -12 -48 -27 -51 -32 -111
-67 -152 -88 -16 -9 -48 -27 -70 -40 -22 -14 -47 -28 -55 -32 -8 -4 -17 -9
-20 -12 -24 -27 -140 -71 -140 -52 0 3 -17 15 -37 26 -21 11 -66 37 -100 58
-35 20 -67 37 -73 37 -5 0 -10 4 -10 9 0 5 -8 11 -17 14 -18 6 -46 22 -161 90
-35 20 -67 37 -73 37 -5 0 -9 5 -9 10 0 6 -6 10 -12 10 -7 0 -26 11 -42 23
l-29 24 29 15 c16 8 74 41 129 73 55 32 118 68 140 79 22 12 42 24 45 28 3 3
39 25 80 48 41 23 98 55 125 71 28 16 59 34 70 39 11 6 27 14 35 20 38 24 206
123 225 131 11 5 34 18 50 28 17 11 53 32 80 47 28 14 61 34 75 43 14 9 39 23
55 31 17 8 32 18 35 21 3 3 30 19 60 35 30 16 57 30 60 32 3 2 5 555 5 1228
l1 1225 -56 31 c-30 18 -57 34 -60 37 -3 3 -23 15 -45 27 -22 11 -57 31 -77
42 -21 12 -53 30 -70 41 -18 10 -78 44 -133 76 -55 32 -116 68 -136 79 -20 12
-68 39 -105 60 -38 21 -77 46 -86 54 -10 8 -18 11 -18 7 0 -4 -8 -2 -17 6 -10
8 -27 19 -38 25 -48 26 -70 39 -75 44 -3 3 -23 15 -45 26 -74 40 -318 183
-327 192 -6 6 14 23 54 46 34 20 70 41 78 46 15 9 112 65 180 103 19 11 49 28
65 38 17 11 41 24 55 31 14 7 27 15 30 18 5 5 51 31 97 55 23 12 30 12 54 -6
15 -10 30 -19 33 -19z"/>
<path d="M2105 5286 c-11 -6 -22 -13 -25 -16 -5 -5 -27 -18 -75 -44 -11 -6
-22 -13 -25 -16 -3 -3 -21 -13 -40 -24 -89 -48 -146 -80 -155 -86 -5 -4 -27
-17 -47 -29 -57 -32 -95 -53 -188 -108 -47 -27 -102 -58 -122 -68 -21 -11 -38
-22 -38 -26 0 -4 -8 -9 -17 -12 -28 -9 -208 -112 -233 -133 -8 -7 -18 -13 -23
-13 -4 0 -17 -7 -30 -14 -55 -35 -175 -104 -202 -117 -16 -8 -52 -30 -80 -47
-27 -18 -55 -33 -62 -33 -7 0 -13 -4 -13 -9 0 -5 -8 -11 -18 -14 -9 -4 -37
-18 -62 -33 -52 -31 -96 -56 -160 -92 -25 -14 -56 -32 -70 -41 -14 -10 -36
-22 -50 -29 -14 -7 -43 -23 -65 -37 -22 -14 -58 -35 -80 -47 -22 -12 -49 -28
-60 -35 -11 -7 -31 -18 -45 -25 -39 -20 -104 -62 -112 -73 -4 -5 -8 -553 -8
-1217 0 -1186 0 -1208 20 -1228 10 -10 38 -29 62 -41 24 -12 46 -27 50 -33 4
-6 8 -8 8 -4 0 4 24 -7 53 -25 28 -18 66 -39 82 -47 17 -8 32 -18 35 -21 3 -4
25 -18 50 -31 25 -14 63 -35 85 -48 22 -13 49 -28 60 -34 11 -6 39 -24 62 -39
24 -15 45 -27 47 -27 3 0 33 -17 68 -37 115 -68 143 -84 161 -90 9 -3 17 -10
17 -15 0 -5 5 -6 10 -3 6 3 13 -1 16 -9 3 -9 15 -16 25 -16 10 0 19 -3 19 -8
0 -4 17 -15 38 -25 54 -26 97 -51 100 -59 2 -5 8 -8 13 -8 5 0 33 -16 64 -35
30 -20 58 -36 62 -37 5 0 24 -11 43 -23 40 -25 117 -69 175 -99 22 -12 42 -24
45 -27 4 -5 69 -42 152 -89 15 -8 67 -38 115 -66 49 -28 110 -63 138 -79 27
-15 89 -52 138 -81 49 -30 99 -54 110 -54 11 0 61 24 111 52 50 29 95 53 99
53 4 0 11 5 15 10 4 6 16 15 27 21 91 49 112 60 123 71 6 6 9 14 5 16 -5 3
-30 17 -58 32 -27 16 -53 33 -57 39 -4 6 -8 7 -8 2 0 -5 -6 -4 -12 2 -7 6 -42
27 -78 47 -36 21 -80 46 -97 56 -18 11 -48 27 -65 38 -97 55 -114 66 -130 79
-10 8 -18 12 -18 8 0 -4 -13 2 -29 13 -16 12 -34 21 -40 21 -6 0 -11 5 -11 10
0 6 -6 10 -14 10 -8 0 -21 6 -28 13 -7 7 -33 23 -58 36 -63 34 -80 43 -125 72
-22 14 -50 29 -62 33 -13 4 -23 12 -23 18 0 6 -3 9 -6 6 -5 -6 -60 26 -91 52
-7 5 -17 10 -23 10 -6 0 -30 13 -53 28 -23 16 -57 35 -74 43 -18 8 -33 17 -33
21 0 5 -7 8 -15 8 -8 0 -15 5 -15 10 0 6 -9 10 -20 10 -11 0 -20 4 -20 9 0 5
-12 14 -27 20 -16 6 -53 27 -83 46 -30 19 -61 34 -67 35 -7 0 -13 5 -13 10 0
6 -6 10 -13 10 -8 0 -21 8 -30 18 -16 17 -17 125 -17 1348 0 731 4 1335 9
1342 4 7 19 19 32 26 49 26 126 70 188 108 34 21 65 38 67 38 2 0 33 18 69 40
36 22 68 40 71 40 3 0 30 16 60 35 30 19 59 35 64 35 6 0 10 3 10 8 0 4 17 15
38 25 20 9 60 30 87 47 28 16 84 49 125 72 41 23 77 44 80 47 3 3 19 13 35 21
17 8 32 17 35 20 6 6 86 50 117 65 13 5 23 13 23 18 0 4 4 7 9 7 4 0 59 29
120 65 62 36 116 65 121 65 4 0 10 3 12 8 3 7 69 45 115 67 36 16 27 32 -39
70 -35 19 -70 40 -78 45 -8 6 -26 15 -40 22 -14 7 -32 17 -40 24 -8 6 -42 26
-75 44 -33 17 -64 35 -70 40 -5 4 -19 3 -30 -4z"/>
</g>
</svg>
